<svg width="36" height="35" viewBox="0 0 36 35" fill="none" xmlns="http://www.w3.org/2000/svg">
<path d="M5.55355 2.49994H30.6889C32.0678 2.49994 33.1864 3.61894 33.1864 5.00003V30C33.1864 31.3811 32.0678 32.5001 30.6889 32.5001H5.55355C4.17472 32.5001 3.0561 31.3811 3.0561 30V5.00003C3.0561 3.61893 4.17473 2.49994 5.55355 2.49994Z" fill="black" fill-opacity="0.01" stroke="#CF446F"/>
<path d="M21.5743 10H14.8532C12.5708 10 10.7139 11.857 10.7139 14.1394V20.8605C10.7139 23.143 12.5708 24.9999 14.8532 24.9999H21.5743C23.8569 24.9999 25.7138 23.1429 25.7138 20.8605V14.1394C25.7139 11.857 23.8569 10 21.5743 10ZM24.383 20.8605C24.383 22.4092 23.123 23.669 21.5743 23.669H14.8532C13.3046 23.6691 12.0447 22.4092 12.0447 20.8605V14.1394C12.0447 12.5908 13.3046 11.3309 14.8532 11.3309H21.5743C23.1229 11.3309 24.3829 12.5908 24.3829 14.1394V20.8605H24.383Z" fill="#CF446F"/>
<path d="M18.2139 13.635C16.0826 13.635 14.3488 15.3689 14.3488 17.5001C14.3488 19.6313 16.0826 21.365 18.2139 21.365C20.3451 21.365 22.0789 19.6313 22.0789 17.5001C22.0789 15.3689 20.3451 13.635 18.2139 13.635ZM18.2139 20.0341C16.8165 20.0341 15.6796 18.8973 15.6796 17.5C15.6796 16.1026 16.8164 14.9658 18.2139 14.9658C19.6113 14.9658 20.7481 16.1026 20.7481 17.5C20.7481 18.8973 19.6112 20.0341 18.2139 20.0341Z" fill="#CF446F"/>
<path d="M22.241 12.5066C21.9846 12.5066 21.7327 12.6104 21.5516 12.7923C21.3696 12.9733 21.265 13.2253 21.265 13.4826C21.265 13.7391 21.3697 13.9909 21.5516 14.1728C21.7326 14.3538 21.9846 14.4585 22.241 14.4585C22.4983 14.4585 22.7494 14.3538 22.9313 14.1728C23.1131 13.9909 23.2169 13.739 23.2169 13.4826C23.2169 13.2253 23.1131 12.9733 22.9313 12.7923C22.7503 12.6104 22.4983 12.5066 22.241 12.5066Z" fill="#CF446F"/>
</svg>
