<svg width="375" height="364" viewBox="0 0 375 364" fill="none" xmlns="http://www.w3.org/2000/svg">
<path d="M58.2835 72.4135C59.3219 74.9091 60.6966 77.2079 62.3419 79.2675L59.9289 84.3328L64.8014 87.9905L69.674 91.6482L73.8571 87.9122C76.2934 88.9177 78.8841 89.595 81.5678 89.8935L83.4394 95.179L89.4688 94.3174L95.4982 93.4559L95.8154 87.8572C98.3088 86.8179 100.606 85.442 102.663 83.7952L107.724 86.2104L111.378 81.3334L115.033 76.4565L111.3 72.2696C112.305 69.8311 112.982 67.2381 113.28 64.552L118.56 62.6787L117.7 56.6439L116.839 50.6091L111.245 50.2916C110.207 47.7959 108.832 45.4972 107.187 43.4376L109.6 38.3723L104.727 34.7145L99.8548 31.0568L95.6716 34.7929C93.2353 33.7874 90.6447 33.1101 87.9609 32.8116L86.0914 27.5261L80.0621 28.3876L74.0327 29.2491L73.7155 34.8479C71.2221 35.8872 68.9254 37.2631 66.8676 38.9099L61.8068 36.4947L58.1524 41.3717L54.498 46.2486L58.2307 50.4355C57.2261 52.874 56.5494 55.467 56.2512 58.1531L50.9705 60.0264L51.8312 66.0612L52.6919 72.096L58.2835 72.4135ZM81.7476 40.2053C93.4172 38.5374 104.228 46.655 105.895 58.333C107.561 70.0131 99.4529 80.8339 87.7833 82.5019C76.1137 84.1698 65.3027 76.0522 63.6362 64.3742C61.9676 52.6919 70.0779 41.8733 81.7476 40.2053Z" fill="url(#paint0_linear)"/>
<path d="M43.1348 20.5789C43.6107 21.7219 44.2409 22.776 44.9959 23.7201L43.8898 26.0421L46.1231 27.7186L48.3564 29.395L50.2745 27.6826C51.3911 28.1441 52.5797 28.4531 53.8084 28.5907L54.667 31.0143L57.4311 30.6185L60.1952 30.2227L60.3411 27.6572C61.4831 27.1809 62.5363 26.5502 63.4795 25.7945L65.7995 26.9015L67.4744 24.6663L69.1494 22.431L67.4385 20.5111C67.8995 19.3935 68.2083 18.2039 68.3457 16.9741L70.7672 16.1168L70.3717 13.3502L69.9805 10.5837L67.4173 10.4376C66.9415 9.29457 66.3113 8.24043 65.5563 7.29637L66.6623 4.97432L64.4291 3.29787L62.1958 1.62142L60.2777 3.33385C59.161 2.8724 57.9725 2.56336 56.7438 2.42577L55.8852 0L53.1211 0.395829L50.3549 0.789541L50.2089 3.35714C49.0669 3.8334 48.0138 4.46419 47.0705 5.21986L44.7506 4.11281L43.0756 6.34808L41.4007 8.58335L43.1116 10.5032C42.6506 11.6209 42.3418 12.8105 42.2043 14.0403L39.7828 14.8997L40.1783 17.6662L40.5738 20.4328L43.1348 20.5789ZM53.893 5.81254C59.2435 5.0484 64.1985 8.76962 64.962 14.1228C65.7255 19.4782 62.0076 24.4377 56.6592 25.2018C51.3087 25.9659 46.3536 22.2447 45.5902 16.8915C44.8246 11.5383 48.5425 6.57668 53.893 5.81254Z" fill="url(#paint1_linear)"/>
<path d="M148.728 136.712H147.317V284.915H148.728V136.712Z" fill="#F3F3F3"/>
<path d="M163.238 118.451H148.024V122.314H163.238V118.451Z" fill="white"/>
<path d="M160.197 125.593H148.024V129.456H160.197V125.593Z" fill="white"/>
<path d="M164.693 293.698H148.728V298.848H164.693V293.698Z" fill="white"/>
<path d="M206.629 85.0411C206.629 85.0411 237.51 121.688 217.92 145.419C198.33 169.149 192.942 145.882 192.942 145.882C192.942 145.882 181.217 148.06 201.524 118.38C211.095 104.388 206.629 85.0411 206.629 85.0411Z" fill="url(#paint2_linear)"/>
<path d="M274.314 56.446C274.314 56.446 297.256 90.337 257.315 129.376C217.374 168.415 220.344 191.699 220.344 191.699C220.344 191.699 179.504 111.688 274.314 56.446Z" fill="url(#paint3_linear)"/>
<path d="M212.885 176.973C196.127 178.486 215.571 133.137 241.75 121.298C267.93 109.46 290.078 110.463 305.385 97.972C305.385 97.9699 295.401 169.52 212.885 176.973Z" fill="url(#paint4_linear)"/>
<path d="M108.842 136.712H107.432V284.915H108.842V136.712Z" fill="#F3F3F3"/>
<path d="M209.191 136.712H207.78V284.915H209.191V136.712Z" fill="#F3F3F3"/>
<path d="M31.8217 118.451H7.78662V122.314H31.8217V118.451Z" fill="#E0E0E0"/>
<path d="M41.8798 125.593H7.78662V129.456H41.8798V125.593Z" fill="#E0E0E0"/>
<path d="M135.273 118.451H107.055V122.314H135.273V118.451Z" fill="white"/>
<path d="M125.098 125.593H107.055V129.456H125.098V125.593Z" fill="white"/>
<path d="M226.678 118.451H209.19V122.314H226.678V118.451Z" fill="white"/>
<path d="M229.571 125.593H209.19V129.456H229.571V125.593Z" fill="white"/>
<path d="M124.1 293.698H108.135V298.848H124.1V293.698Z" fill="white"/>
<path d="M225.155 293.698H209.19V298.848H225.155V293.698Z" fill="white"/>
<path d="M229.943 239.204C253.046 239.206 271.371 223.653 289.309 208.431C302.911 196.889 317.024 185.086 333.312 179.265C383.027 161.499 408.46 193.94 408.689 194.226V184.358C408.42 184.019 403.884 178.124 390.757 172.493C378.806 167.369 358.758 163.279 331.102 172.906C313.581 179.007 299.031 191.354 284.958 203.296C256.413 227.52 231.76 248.44 188.945 215.671C156.519 190.852 125.951 167.202 95.8737 158.561C66.4564 150.109 35.7871 156.296 7.08044 185.031L7.29193 193.993C68.273 132.688 120.196 171.528 184.861 221.019C201.99 234.128 216.749 239.204 229.943 239.204Z" fill="url(#paint5_linear)"/>
<path d="M78.4285 306.44H229.383C236.385 306.44 242.061 301.049 242.061 294.399V96.9456C242.061 90.2955 236.385 84.9048 229.383 84.9048H78.4285C71.4263 84.9048 65.7501 90.2955 65.7501 96.9456V294.399C65.7501 301.049 71.4263 306.44 78.4285 306.44Z" fill="url(#paint6_linear)"/>
<path d="M231.754 56.4397H84.6983C79.993 56.4397 76.1788 60.1116 76.1788 64.6414V296.431H231.756V56.4397H231.754Z" fill="#F5F5F5"/>
<path d="M217.142 103.763H171.31V109.565H217.142V103.763Z" fill="url(#paint7_linear)"/>
<path d="M213.382 128.084H171.31V133.886H213.382V128.084Z" fill="url(#paint8_linear)"/>
<path d="M207.712 115.924H171.31V121.726H207.712V115.924Z" fill="url(#paint9_linear)"/>
<path d="M122.134 140.971C116.927 140.971 111.906 139.888 107.214 137.75C94.347 131.897 86.0336 118.978 86.0336 104.837C86.0336 84.9118 102.229 68.7019 122.136 68.7019C142.043 68.7019 158.238 84.9118 158.238 104.837C158.238 118.978 149.925 131.897 137.056 137.75C132.359 139.89 127.338 140.971 122.134 140.971ZM122.134 70.6112C103.278 70.6112 87.9369 85.966 87.9369 104.839C87.9369 118.233 95.8126 130.47 108 136.016C112.446 138.04 117.2 139.066 122.132 139.066C127.063 139.066 131.818 138.04 136.263 136.016C148.451 130.472 156.326 118.233 156.326 104.839C156.328 85.966 140.99 70.6112 122.134 70.6112Z" fill="url(#paint10_linear)"/>
<path d="M138.695 155.518H86.0316V160.691H138.695V155.518Z" fill="#E0E0E0"/>
<path d="M138.695 169.438H86.0315V174.611H138.695V169.438Z" fill="#E0E0E0"/>
<path d="M138.695 183.355H86.0315V188.529H138.695V183.355Z" fill="#E0E0E0"/>
<path d="M158.097 155.577H149.305V160.75H158.097V155.577Z" fill="#4E7ED6"/>
<path d="M158.096 169.497H149.305V174.67H158.096V169.497Z" fill="#4E7ED6"/>
<path d="M158.096 183.414H149.305V188.588H158.096V183.414Z" fill="#4E7ED6"/>
<path d="M42.0682 240.883C73.3677 240.885 100.577 227.34 128.941 213.221C163.958 195.792 200.169 177.77 248.414 182.705C279.221 185.856 298.559 198.413 315.619 209.492C331.066 219.523 345.671 228.345 365.451 229.097C397.417 230.314 408.507 216.667 408.693 215.836V207.079C408.653 207.229 401.674 222.546 365.485 222.364C347.663 222.275 334.511 213.732 319.28 203.842C301.581 192.348 281.522 179.322 249.099 176.005C198.921 170.872 161.823 189.336 125.949 207.191C88.4105 225.875 52.5895 243.395 7.29614 228.195V235.394C20.2029 239.729 30.5297 240.883 42.0682 240.883Z" fill="url(#paint11_radial)"/>
<g filter="url(#filter0_d)">
<path d="M260.044 299.919H186.434C177.706 299.919 170.629 292.836 170.629 284.101V155.818C170.629 147.083 177.706 140 186.434 140H260.044C268.772 140 275.849 147.083 275.849 155.818V284.101C275.849 292.836 268.772 299.919 260.044 299.919Z" fill="#FDFDFD"/>
</g>
<path d="M263.698 164.276C261.12 157.06 254.228 152.628 246.965 152.846C245.208 152.899 243.427 153.225 241.681 153.849C236.391 155.744 232.597 159.96 231.039 164.943C229.958 168.396 229.952 172.216 231.263 175.887C231.394 176.251 231.536 176.611 231.686 176.962C232.375 178.552 233.28 179.989 234.355 181.253C238.861 186.557 246.34 188.797 253.278 186.314C262.237 183.107 266.9 173.241 263.698 164.276ZM251.83 182.252C246.627 184.114 241.021 182.434 237.641 178.459C236.835 177.51 236.157 176.433 235.641 175.241C235.526 174.979 235.421 174.71 235.323 174.435C234.34 171.683 234.346 168.819 235.156 166.23C236.324 162.494 239.168 159.332 243.136 157.914C244.445 157.446 245.779 157.2 247.099 157.16C252.542 156.995 257.711 160.318 259.644 165.731C262.04 172.451 258.544 179.847 251.83 182.252Z" fill="#E0E0E0"/>
<path d="M235.154 166.23L231.039 164.943C232.598 159.961 236.392 155.744 241.681 153.85C243.428 153.225 245.208 152.899 246.966 152.846L247.095 157.16C245.777 157.2 244.443 157.444 243.132 157.914C239.166 159.332 236.322 162.494 235.154 166.23Z" fill="#537FFD"/>
<path d="M235.641 175.239L231.688 176.962C231.536 176.611 231.394 176.253 231.265 175.887C229.954 172.216 229.96 168.396 231.041 164.943L235.156 166.23C234.346 168.819 234.342 171.683 235.323 174.435C235.419 174.708 235.527 174.977 235.641 175.239Z" fill="#4BA6F3"/>
<path d="M234.357 181.253C233.282 179.989 232.377 178.552 231.688 176.962L235.641 175.239C236.157 176.431 236.835 177.51 237.641 178.456L234.357 181.253Z" fill="#46BBED"/>
<path d="M206.55 275.291C204.899 270.67 200.486 267.831 195.835 267.971C194.709 268.005 193.569 268.213 192.45 268.613C189.063 269.826 186.634 272.527 185.635 275.718C184.943 277.929 184.939 280.375 185.779 282.726C185.863 282.959 185.954 283.189 186.05 283.414C186.491 284.432 187.071 285.353 187.759 286.162C190.645 289.559 195.434 290.993 199.877 289.403C205.614 287.35 208.601 281.031 206.55 275.291ZM198.95 286.802C195.618 287.995 192.028 286.918 189.864 284.373C189.348 283.765 188.913 283.075 188.582 282.312C188.509 282.144 188.442 281.972 188.379 281.796C187.75 280.034 187.754 278.2 188.272 276.542C189.02 274.149 190.841 272.124 193.382 271.216C194.22 270.916 195.075 270.759 195.92 270.733C199.406 270.628 202.716 272.756 203.954 276.222C205.488 280.526 203.25 285.262 198.95 286.802Z" fill="#E0E0E0"/>
<path d="M188.271 276.542L185.635 275.718C186.633 272.527 189.063 269.827 192.45 268.614C193.569 268.214 194.709 268.005 195.834 267.971L195.917 270.734C195.073 270.76 194.219 270.916 193.379 271.216C190.84 272.125 189.018 274.15 188.271 276.542Z" fill="#537FFD"/>
<path d="M188.582 282.311L186.051 283.414C185.953 283.189 185.863 282.96 185.78 282.726C184.94 280.375 184.944 277.929 185.637 275.718L188.272 276.542C187.753 278.2 187.751 280.034 188.379 281.796C188.44 281.971 188.509 282.143 188.582 282.311Z" fill="#4BA6F3"/>
<path d="M187.76 286.162C187.072 285.353 186.492 284.433 186.051 283.415L188.582 282.311C188.912 283.074 189.347 283.766 189.863 284.372L187.76 286.162Z" fill="#46BBED"/>
<path d="M247.327 259.51H238.043V289.978H247.327V259.51Z" fill="#46BBED"/>
<path d="M233.526 268.055H224.242V289.978H233.526V268.055Z" fill="#46BBED"/>
<path d="M260.718 245.39H251.434V289.981H260.718V245.39Z" fill="#46BBED"/>
<path d="M184.836 261.168L184.031 260.547L199.158 240.845L217.83 241.859L231.91 219.417L247.078 217.851L256.193 199.806L257.102 200.265L247.736 218.806L232.509 220.378L218.373 242.909L199.638 241.891L184.836 261.168Z" fill="#46BBED" stroke="#46BBED" stroke-width="4"/>
<path d="M213.45 163.194H187.048C185.382 163.194 184.031 161.842 184.031 160.174C184.031 158.506 185.382 157.153 187.048 157.153H213.45C215.116 157.153 216.468 158.506 216.468 160.174C216.468 161.842 215.116 163.194 213.45 163.194Z" fill="#4E7ED6"/>
<path d="M213.45 173.734H187.048C185.382 173.734 184.031 172.381 184.031 170.713C184.031 169.045 185.382 167.693 187.048 167.693H213.45C215.116 167.693 216.468 169.045 216.468 170.713C216.468 172.381 215.116 173.734 213.45 173.734Z" fill="#E0E0E0"/>
<path d="M213.45 184.273H187.048C185.382 184.273 184.031 182.92 184.031 181.252C184.031 179.584 185.382 178.231 187.048 178.231H213.45C215.116 178.231 216.468 179.584 216.468 181.252C216.468 182.92 215.116 184.273 213.45 184.273Z" fill="#E0E0E0"/>
<g filter="url(#filter1_d)">
<path d="M105.435 247.748C105.435 247.748 102.379 249.266 99.4862 249.552C99.4862 249.552 96.7517 245.539 95.1508 242.535C91.3335 235.368 90.2063 232.015 90.532 229.263C91.1178 224.318 100.835 204.531 100.835 204.531L111.623 208.697L103.365 223.387C102.593 224.892 101.599 227.339 100.571 229.329C99.224 231.936 100.846 237.906 101.806 240.399C101.806 240.399 103.566 245.227 105.435 247.748Z" fill="#EEA886"/>
<path d="M71.7232 329.255C71.7232 329.255 71.406 331.046 72.6431 333.436C73.8803 335.825 79.4275 341.921 79.0447 344.423C78.6619 346.925 72.254 346.631 68.2295 342.224C64.205 337.817 58.2263 333.243 58.4484 332.187C58.6683 331.128 64.7041 325.631 66.8041 324.901C68.8999 324.171 71.7232 329.255 71.7232 329.255Z" fill="#353A3D"/>
<path d="M73.9353 326.899L71.6682 329.344L66.5714 324.994L68.9146 322.274L73.9353 326.899Z" fill="#EEA886"/>
<path d="M66.9349 322.274C69.422 319.452 89.4896 298.899 89.4896 298.899C99.7254 287.09 103.729 286.779 103.729 286.779C103.729 286.779 106.315 286.834 109.826 287.314C110.329 287.384 111.974 287.367 112.501 287.452C119.019 288.508 119.199 287.765 116.817 293.11C112.899 301.896 73.6093 327.248 73.6093 327.248L66.9349 322.274Z" fill="#248C9E"/>
<path d="M158.615 332.985C158.615 332.985 161.834 334.391 164.67 334.778C167.506 335.165 174.336 334.039 176.278 335.904C178.217 337.769 174.036 343.167 167.742 343.971C161.449 344.775 153.389 346.109 152.607 345.269C151.822 344.428 151.169 336.876 151.818 334.602C152.469 332.329 158.615 332.985 158.615 332.985Z" fill="#353A3D"/>
<path d="M157.264 329.646L158.615 332.984L151.818 334.601L150.792 331.026L157.264 329.646Z" fill="#EEA886"/>
<path d="M147.062 287.445C147.062 287.445 144.296 276.887 150.792 301.761C150.792 301.761 157.638 328.302 158.391 329.812C158.569 330.169 149.807 331.774 149.646 331.71C148.121 331.101 134.481 297.095 131.091 290.815C128.109 285.286 147.062 287.445 147.062 287.445Z" fill="#248C9E"/>
<path d="M147.066 287.446L133.432 295.297C133.432 295.297 128.066 288.701 124.514 286.009C124.148 285.736 123.784 285.458 123.412 285.171C122.887 284.775 122.363 284.368 121.838 283.956C121.458 283.657 121.073 283.352 120.696 283.05C118.099 280.975 115.671 278.88 114.335 277.33C110.471 272.866 118.928 244.646 129.606 257.232C129.604 257.232 143.917 270.684 147.066 287.446Z" fill="#248C9E"/>
<path d="M128.751 253.885C128.751 253.885 122.032 284.787 115.409 295.299C115.409 295.299 104.162 291.504 98.9956 289.478C98.9956 289.478 98.4944 267.147 98.9935 261.311C99.4588 255.867 128.751 253.885 128.751 253.885Z" fill="#248C9E"/>
<path d="M97.6429 264.722C97.6429 264.722 100.477 236.955 98.1293 224.034C96.5686 215.445 98.8272 201.508 103.97 193.987C104.594 193.073 105.241 192.26 105.91 191.57C105.91 191.57 116.296 194.322 117.336 195.048C117.484 195.152 118.607 196.146 120.031 197.889H120.033C122.987 201.517 127.352 208.085 127.777 214.46C128.086 219.098 128.34 223.359 128.629 227.751C128.716 229.089 128.809 230.437 128.904 231.815C129.137 235.122 129.403 238.585 129.733 242.401C129.917 244.524 131.347 251.26 132.288 257.472L97.6429 264.722Z" fill="#2AA3B8"/>
<path d="M123.412 285.17C122.887 284.775 122.363 284.368 121.839 283.955C121.458 283.657 121.073 283.352 120.697 283.05C121.242 281.31 124.205 273.372 125.368 267.703C125.366 267.703 126.225 276.532 123.412 285.17Z" fill="#196370"/>
<path d="M128.902 231.816C128.902 231.816 122.858 241.011 121.785 218.303L128.627 227.752C128.714 229.09 128.807 230.44 128.902 231.816Z" fill="#1D6F7D"/>
<path d="M105.91 191.568C105.91 191.568 106.993 185.563 105.732 182.071C104.472 178.582 116.067 187.955 116.067 187.955C116.067 187.955 116.067 188.44 116.086 189.168C116.101 189.735 116.133 190.451 116.184 191.2C116.289 192.629 116.478 194.187 116.831 195.08C117.607 197.044 105.91 191.568 105.91 191.568Z" fill="#EEA886"/>
<path d="M122.68 170.524C122.68 170.524 125.125 175.132 123.894 175.837C122.877 176.421 125.046 180.94 125.33 181.679C125.613 182.418 123.486 182.939 123.031 183.409C122.576 183.878 121.202 189.702 119.451 189.865C117.699 190.03 109.839 187.233 107.707 184.985C105.575 182.738 103.881 172.641 105.343 168.395C106.804 164.153 118.366 162.474 122.68 170.524Z" fill="#EEA886"/>
<path d="M123.167 171.521C123.167 171.521 125.726 166.578 121.162 162.87C116.598 159.161 108.094 165.56 107.14 165.801C106.185 166.041 100.521 167.85 103.363 176.281C105.941 183.931 106.273 184.795 106.273 184.795C106.273 184.795 107.841 179.71 108.837 178.997C110.393 177.882 113.787 178.174 113.787 178.174C113.787 178.174 112.197 173.862 114.731 173.269C117.266 172.677 120.614 170.554 123.167 171.521Z" fill="#3B3B40"/>
<path d="M111.11 175.693C110.89 175.102 110.186 172.562 108.003 174.035C105.818 175.511 109.316 180.312 109.695 180.377C110.074 180.441 112.954 180.669 111.11 175.693Z" fill="#EEA886"/>
<path d="M116.183 191.2C112.59 190.233 109.509 186.329 109.509 186.329C110.49 187.288 116.086 189.168 116.086 189.168C116.101 189.735 116.133 190.449 116.183 191.2Z" fill="#A77860"/>
<path d="M156.308 223.87L150.456 254.025L131.118 250.265L136.215 219.962L156.308 223.87Z" fill="#616161"/>
<path d="M154.855 225.337L149.659 252.12L132.485 248.782L137.01 221.868L154.855 225.337Z" fill="#E0CEC7"/>
<path d="M149.411 224.97L149.775 223.091L142.832 221.74L142.198 223.567L149.411 224.97Z" fill="#616161"/>
<path d="M154.045 245.039C154.045 245.039 153.195 245.396 152.747 245.369C152.747 245.369 151.935 245.259 151.353 245.217C151.169 245.204 151.006 245.195 150.903 245.204C150.465 245.229 149.515 245.418 148.447 245.185C147.381 244.952 143.042 242.767 143.042 242.767L143.556 240.083L143.68 237.503C143.68 237.503 150.006 235.35 151.025 235.452C151.125 235.463 151.222 235.478 151.313 235.497C152.167 235.666 152.73 236.151 153.168 236.29C153.328 236.343 154.889 236.972 155.041 237.45C155.255 238.115 155.132 238.663 154.832 239.036C154.832 239.036 155.191 240.357 154.815 241.197C154.815 241.197 155.185 242.406 154.42 243.318C154.422 243.318 154.661 244.586 154.045 245.039Z" fill="#EEA886"/>
<path d="M145.14 236.908C145.14 236.908 144.539 240.27 143.044 242.765C143.044 242.765 138.195 242.573 134.83 242.071C126.806 240.871 123.442 239.779 121.428 237.878C117.808 234.461 107.718 214.863 107.718 214.863L117.486 208.671L124.357 224.062C125.106 225.577 126.477 227.836 127.462 229.847C128.754 232.484 134.509 234.734 137.08 235.448C137.08 235.448 142.004 236.908 145.14 236.908Z" fill="#EEA886"/>
<path d="M122.356 217.039L111.251 222.818C111.251 222.818 109.05 218.552 108.405 217.166C106.554 213.191 103.695 207.181 107.292 204.643C115.056 199.165 118.393 208.257 120.299 213.241C120.889 214.778 122.356 217.039 122.356 217.039Z" fill="#2AA3B8"/>
</g>
<path d="M126.837 85.0388H117.428V124.637H126.837V85.0388Z" fill="url(#paint12_linear)"/>
<path d="M102.352 109.547V100.129H141.914V109.547H102.352Z" fill="url(#paint13_linear)"/>
<path d="M-15.5841 109.036C-24.606 104.764 -35.0385 107.036 -41.5289 113.936C-43.1002 115.606 -44.441 117.549 -45.4751 119.736C-48.6072 126.361 -48.2202 133.747 -45.067 139.777C-42.8824 143.956 -39.3717 147.484 -34.7826 149.656C-34.3258 149.872 -33.8647 150.073 -33.4016 150.255C-31.3016 151.083 -29.1444 151.574 -26.9894 151.747C-17.9527 152.478 -8.99643 147.645 -4.88943 138.956C0.408222 127.737 -4.37764 114.342 -15.5841 109.036ZM-9.97137 136.549C-13.0506 143.064 -19.7652 146.686 -26.5411 146.14C-28.1568 146.009 -29.7746 145.643 -31.3481 145.02C-31.6949 144.883 -32.0417 144.732 -32.3843 144.572C-35.8231 142.944 -38.456 140.298 -40.0929 137.165C-42.4573 132.644 -42.747 127.106 -40.3996 122.141C-39.6255 120.5 -38.6189 119.046 -37.4409 117.793C-32.5747 112.619 -24.7519 110.915 -17.9887 114.118C-9.58435 118.098 -5.9976 128.139 -9.97137 136.549Z" fill="#E0E0E0"/>
<g filter="url(#filter2_d)">
<path d="M231.002 205.387C231.002 205.387 229.606 202.365 229.378 201.91C229.15 201.455 227.815 200.733 226.229 200.333C224.689 199.943 222.594 199.166 222.355 199.315C222.116 199.465 221.834 199.486 221.551 200.151C221.266 200.817 221.39 201.535 221.39 201.535C221.39 201.535 220.654 202.191 220.874 203.065C220.874 203.065 220.21 203.713 220.623 204.668C220.623 204.668 219.99 205.318 220.35 205.986C220.35 205.986 221.587 206.689 221.97 207.081C222.353 207.472 225.026 208.757 227.777 209.595C227.775 209.598 230.645 209.509 231.002 205.387Z" fill="#EEA886"/>
<path d="M227.775 209.598C227.775 209.598 231.19 210.195 232.347 209.528C233.504 208.862 232.157 205.38 232.157 205.38L229.995 204.071L227.775 209.598Z" fill="#EEA886"/>
<path d="M226.508 203.923C226.508 203.923 226.561 205.595 226.812 206.057C227.064 206.518 223.663 207.238 223.663 207.238C223.663 207.238 224.48 204.042 226.508 203.923Z" fill="#A77860"/>
<path d="M222.782 199.461C222.782 199.461 226.51 201.275 226.294 201.912C226.077 202.549 225.611 202.651 225.611 202.651L226.808 204.095C226.808 204.095 227.062 205.498 225.461 205.365C225.461 205.365 225.833 206.652 224.302 206.336C224.302 206.336 224.169 207.295 223.435 207.274C222.701 207.255 220.35 205.987 220.35 205.987C220.35 205.987 219.903 205.468 220.555 204.641C220.555 204.641 220.113 203.758 220.813 203.047C220.813 203.047 220.599 201.889 221.363 201.127C221.363 201.127 221.284 199.842 222.386 199.296C222.386 199.298 222.625 199.383 222.782 199.461Z" fill="#CE9180"/>
<path d="M229.266 201.841C229.266 201.841 226.421 201.902 224.882 202.617C224.533 202.778 224.226 203.001 224.245 203.384C224.264 203.767 224.844 204.228 226.079 204.266C227.312 204.302 228.889 204.916 228.889 204.916C228.889 204.916 230.171 204.582 229.266 201.841Z" fill="#EEA886"/>
<path d="M221.388 201.136C221.388 201.136 225.619 202.586 225.909 202.939C226.199 203.293 226.747 201.737 226.478 201.453C226.209 201.169 222.895 199.4 222.53 199.302C222.166 199.203 220.939 200.067 221.388 201.136Z" fill="#EEA886"/>
<path d="M223.323 199.479C223.323 199.479 216.693 198.12 216.558 198.928C216.422 199.737 217.065 199.873 222.498 201.46C227.781 203.003 223.323 199.479 223.323 199.479Z" fill="#EEA886"/>
<path d="M268.883 335.575C268.883 335.575 266.77 338.74 263.807 339.423C260.845 340.107 257.924 341.193 257.903 343.066C257.88 344.937 266.472 346.055 269.862 344.167C274.923 341.349 275.439 342.2 275.999 340.791C276.56 339.383 275.325 335.617 275.361 335.171C275.405 334.616 268.883 335.575 268.883 335.575Z" fill="#353A3D"/>
<path d="M269.211 334.014C269.211 334.014 268.826 335.542 268.883 335.574C268.94 335.605 275.561 336.395 275.36 335.169C275.198 334.174 274.967 333.093 274.967 333.093L269.211 334.014Z" fill="#81807E"/>
<path d="M291.164 335.366C291.164 335.366 289.656 338.392 287.083 339.423C284.331 340.526 282.123 341.792 282.174 343.614C282.225 345.439 288.904 347.287 293.761 343.786C296.83 341.574 297.803 341.563 298.296 340.171C298.788 338.778 297.441 335.158 297.458 334.722C297.481 334.18 291.164 335.366 291.164 335.366Z" fill="#353A3D"/>
<path d="M291.091 333.793C291.091 333.793 291.108 335.336 291.167 335.366C291.224 335.396 297.623 335.923 297.461 334.723C297.332 333.77 296.839 332.619 296.839 332.619L291.091 333.793Z" fill="#81807E"/>
<path d="M267.626 241.34C267.626 241.34 261.682 267.588 260.324 275.585C259.167 282.39 258.247 289.475 258.801 294.388C259.486 300.469 268.09 331.991 267.73 333.774C267.37 335.556 277.985 334.472 277.985 334.472C277.985 334.472 270.19 298.899 271.494 292.354C272.463 287.506 280.943 255.309 282.242 256.962C283.543 258.613 285.154 287.348 286.116 292.119C287.079 296.89 290.033 334.578 290.033 334.578C290.033 334.578 296.64 335.554 298.404 334.06C298.404 334.06 299.207 301.877 298.594 292.934C298.359 289.526 302.585 252.07 297.168 236.99C294.305 229.023 267.626 241.34 267.626 241.34Z" fill="#2D3133"/>
<path d="M228.798 210.892C228.798 210.892 249.395 215.462 253.493 214.454C255.388 213.988 257.884 211.37 260.254 208.292C261.037 207.278 261.802 206.216 262.532 205.162C262.534 205.16 262.534 205.157 262.534 205.157C265.444 200.954 267.724 196.923 267.724 196.923C267.724 196.923 276.323 186.835 269.422 182.339C269.422 182.339 266.918 181.399 264.617 183.867C262.316 186.336 259.616 191.496 259.013 192.813C258.41 194.127 249.964 206.322 249.526 206.597C249.088 206.872 245.398 205.898 242.437 205.653C237.611 205.248 230.38 203.369 230.38 203.369L228.798 210.892Z" fill="#EAEDFB"/>
<path d="M275.879 180.088C275.879 180.088 267.026 181.922 265.975 182.851C264.835 183.841 262.824 193.547 262.703 196.25C262.583 198.953 263.771 210.245 264.911 214.451C266.051 218.657 265.842 239.37 265.123 245.197C265.123 245.197 282.948 250.264 300.474 247.98C300.474 247.98 297.537 226.189 298.237 220.427C299.135 213.044 301.297 196.036 301.297 196.036C301.297 196.036 299.744 184.189 298.184 182.866C296.623 181.545 285.871 180.084 285.871 180.084H275.879V180.088Z" fill="#BCC0CF"/>
<path d="M279.539 152.69C279.539 152.69 268.891 148.746 269.555 162.909C270.221 177.074 272.716 178.514 279.721 176.535C286.725 174.556 287.313 165.617 288.225 161.315C289.138 157.016 283.02 153.308 279.539 152.69Z" fill="#EEA886"/>
<path d="M274.485 182.007C274.485 182.007 276.676 183.457 284.985 179.793C284.985 179.793 284.751 174.091 286.381 168.765C288.012 163.439 275.23 175.866 275.23 175.866C275.363 175.962 275.39 176.493 275.312 177.236C275.247 177.865 275.109 178.646 274.902 179.437C274.437 181.218 274.485 180.451 274.485 182.007Z" fill="#EEA886"/>
<path d="M286.747 168.343C286.747 168.343 286.776 164.558 285.205 164.211C283.634 163.862 283.427 162.605 283.427 162.605L282.526 162.814C282.526 162.814 282.691 162.147 281.191 161.269C279.692 160.391 270.727 161.163 269.602 159.872C268.477 158.581 270.107 150.914 272.554 150.16C275.001 149.407 280.684 149.477 285.873 150.937C285.873 150.937 289.815 151.932 290.114 156.576C290.304 159.58 288.024 166.29 286.747 168.343Z" fill="#2D3133"/>
<path d="M274.904 179.437C283.158 178.048 284.391 173.349 284.41 173.277C281.202 177.42 275.314 177.237 275.314 177.237C275.25 177.864 275.111 178.645 274.904 179.437Z" fill="#A77860"/>
<path d="M275.267 183.867C275.267 183.867 273.764 186.087 272.856 191.783C271.949 197.479 272.104 207.295 272.104 207.295L274.193 207.549C274.193 207.549 277.357 187.533 276.813 184.044L275.267 183.867Z" fill="#434343"/>
<path d="M283.424 162.605C283.894 161.356 286.55 161.515 286.279 163.492C286.007 165.471 283.811 168.519 282.932 167.947C282.052 167.376 282.775 164.326 283.424 162.605Z" fill="#EEA886"/>
<path d="M265.86 182.843C265.86 182.843 260.831 189.504 262.694 206.931C266.061 238.424 257.242 288.978 257.242 288.978L266.34 291.827C266.34 291.827 275.034 227.201 272.82 203.746C271.811 193.058 268.817 189.502 273.541 180.597C273.541 180.599 268.942 180.832 265.86 182.843Z" fill="#EAEDFB"/>
<path d="M288.318 180.451C288.318 180.451 273.918 195.01 272.791 206.046C271.664 217.083 269.826 291.827 269.826 291.827L304.107 289.829C304.107 289.829 300.956 250.373 300.186 245.437C299.419 240.5 297.826 212.162 301.297 199.01C303.16 191.945 300.944 182.982 296.684 182.004C292.427 181.027 288.318 180.451 288.318 180.451Z" fill="#EAEDFB"/>
<path d="M251.232 236.259L276.316 262.239L292.977 246.127L268.544 219.515L251.232 236.259Z" fill="#616161"/>
<path d="M253.605 236.775L275.881 259.85L290.678 245.538L268.98 221.905L253.605 236.775Z" fill="#E0CEC7"/>
<path d="M258.738 232.92L257.173 231.299L263.156 225.514L264.954 226.909L258.738 232.92Z" fill="#616161"/>
<path d="M284.985 178.216C284.985 178.216 280.641 180.838 276.344 181.429L278.63 185.08L285.873 180.089L284.985 178.216Z" fill="#A7AAB8"/>
<path d="M274.904 179.437C274.904 179.437 275.36 180.94 276.342 181.431L274.195 184.428L274.273 180.453L274.904 179.437Z" fill="#A7AAB8"/>
<path d="M276.342 181.429L274.641 183.802C274.641 183.802 275.718 185.165 278.036 184.132L276.342 181.429Z" fill="#434343"/>
<path d="M260.257 208.29C261.039 207.278 261.805 206.216 262.534 205.162C262.537 205.159 262.537 205.157 262.537 205.157C262.537 205.157 262.262 197.478 262.503 195.272C262.501 195.272 259.995 203.544 260.257 208.29Z" fill="#BCC0CF"/>
<path d="M295.593 203.199C295.593 203.199 297.265 214.09 297.147 214.788C297.029 215.487 304.716 212.602 295.593 203.199Z" fill="#BCC0CF"/>
<path d="M265.392 205.478H269.434V199.304H265.392V205.478Z" fill="#C6CAD9"/>
<path d="M283.357 228.909C283.357 228.909 282.987 229.642 282.371 229.889C281.31 230.317 279.611 229.64 278.956 231.159C278.298 232.679 282.534 236.25 283.596 236.436C284.657 236.623 286.161 234.883 287.14 231.53C288.119 228.177 283.357 228.909 283.357 228.909Z" fill="#EEA886"/>
<path d="M279.25 230.682C279.25 230.682 277.427 232.314 275.625 234.387C274.043 236.207 272.522 238.65 272.795 239.111C273.4 240.136 274.87 237.848 276.562 236.154C278.118 234.594 277.86 234.867 277.86 234.867C277.86 234.867 277.862 234.702 276.505 236.745C275.043 238.942 273.77 241.353 274.117 241.888C274.284 242.149 274.965 242.786 275.291 241.736C274.999 242.227 274.948 242.106 275.143 242.257C276.154 243.027 278.808 240.153 279.863 239.012C279.059 239.895 278.565 240.633 279.476 240.707C280.519 240.792 284.086 236.55 285.512 235.159C287.064 233.642 279.25 230.682 279.25 230.682Z" fill="#EEA886"/>
<path d="M292.523 183.02C291.362 183.469 290.922 185.533 291.4 191.51C291.876 197.488 293.98 200.238 294.765 201.62C295.549 203.002 299.863 211.526 299.087 212.646C298.311 213.768 290.987 220.999 290.564 221.587C290.142 222.175 281.964 229.584 281.964 229.584L286.125 235.407C286.125 235.407 303.782 221.604 305.159 220.226C306.536 218.848 310.653 215.952 309.131 211.139C307.582 206.245 304.801 194.791 304.307 193.894C303.812 192.996 300.198 180.044 292.523 183.02Z" fill="#EAEDFB"/>
</g>
<defs>
<filter id="filter0_d" x="146.629" y="120" width="153.219" height="207.919" filterUnits="userSpaceOnUse" color-interpolation-filters="sRGB">
<feFlood flood-opacity="0" result="BackgroundImageFix"/>
<feColorMatrix in="SourceAlpha" type="matrix" values="0 0 0 0 0 0 0 0 0 0 0 0 0 0 0 0 0 0 127 0"/>
<feOffset dy="4"/>
<feGaussianBlur stdDeviation="12"/>
<feColorMatrix type="matrix" values="0 0 0 0 0 0 0 0 0 0 0 0 0 0 0 0 0 0 0.05 0"/>
<feBlend mode="normal" in2="BackgroundImageFix" result="effect1_dropShadow"/>
<feBlend mode="normal" in="SourceGraphic" in2="effect1_dropShadow" result="shape"/>
</filter>
<filter id="filter1_d" x="41.4424" y="159.716" width="138.314" height="204.284" filterUnits="userSpaceOnUse" color-interpolation-filters="sRGB">
<feFlood flood-opacity="0" result="BackgroundImageFix"/>
<feColorMatrix in="SourceAlpha" type="matrix" values="0 0 0 0 0 0 0 0 0 0 0 0 0 0 0 0 0 0 127 0"/>
<feOffset dx="-7" dy="8"/>
<feGaussianBlur stdDeviation="5"/>
<feColorMatrix type="matrix" values="0 0 0 0 0.266667 0 0 0 0 0.266667 0 0 0 0 0.266667 0 0 0 0.1 0"/>
<feBlend mode="normal" in2="BackgroundImageFix" result="effect1_dropShadow"/>
<feBlend mode="normal" in="SourceGraphic" in2="effect1_dropShadow" result="shape"/>
</filter>
<filter id="filter2_d" x="199.542" y="147.688" width="112.921" height="216.077" filterUnits="userSpaceOnUse" color-interpolation-filters="sRGB">
<feFlood flood-opacity="0" result="BackgroundImageFix"/>
<feColorMatrix in="SourceAlpha" type="matrix" values="0 0 0 0 0 0 0 0 0 0 0 0 0 0 0 0 0 0 127 0"/>
<feOffset dx="-7" dy="8"/>
<feGaussianBlur stdDeviation="5"/>
<feColorMatrix type="matrix" values="0 0 0 0 0.266667 0 0 0 0 0.266667 0 0 0 0 0.266667 0 0 0 0.1 0"/>
<feBlend mode="normal" in2="BackgroundImageFix" result="effect1_dropShadow"/>
<feBlend mode="normal" in="SourceGraphic" in2="effect1_dropShadow" result="shape"/>
</filter>
<linearGradient id="paint0_linear" x1="50.9677" y1="61.3529" x2="118.561" y2="61.3529" gradientUnits="userSpaceOnUse">
<stop stop-color="#FF9F55"/>
<stop offset="1" stop-color="#FFD255"/>
</linearGradient>
<linearGradient id="paint1_linear" x1="39.7819" y1="15.5077" x2="70.7695" y2="15.5077" gradientUnits="userSpaceOnUse">
<stop stop-color="#FF9F55"/>
<stop offset="1" stop-color="#FFD255"/>
</linearGradient>
<linearGradient id="paint2_linear" x1="193.939" y1="88.8965" x2="213.47" y2="153.171" gradientUnits="userSpaceOnUse">
<stop stop-color="#40D5E6"/>
<stop offset="1" stop-color="#5577FF"/>
</linearGradient>
<linearGradient id="paint3_linear" x1="230.959" y1="135.89" x2="272.062" y2="67.7202" gradientUnits="userSpaceOnUse">
<stop stop-color="#602F80"/>
<stop offset="1" stop-color="#5770FF"/>
</linearGradient>
<linearGradient id="paint4_linear" x1="-720.457" y1="890.052" x2="-704.798" y2="878.012" gradientUnits="userSpaceOnUse">
<stop stop-color="#602F80"/>
<stop offset="1" stop-color="#5770FF"/>
</linearGradient>
<linearGradient id="paint5_linear" x1="408.69" y1="197.138" x2="7.08097" y2="197.138" gradientUnits="userSpaceOnUse">
<stop stop-color="#FF9F55"/>
<stop offset="1" stop-color="#FFD255"/>
</linearGradient>
<linearGradient id="paint6_linear" x1="150.35" y1="387.465" x2="155.903" y2="55.3078" gradientUnits="userSpaceOnUse">
<stop stop-color="#40D5E6"/>
<stop offset="1" stop-color="#5577FF"/>
</linearGradient>
<linearGradient id="paint7_linear" x1="171.309" y1="106.664" x2="217.142" y2="106.664" gradientUnits="userSpaceOnUse">
<stop stop-color="#40D5E6"/>
<stop offset="1" stop-color="#5577FF"/>
</linearGradient>
<linearGradient id="paint8_linear" x1="171.309" y1="130.986" x2="213.382" y2="130.986" gradientUnits="userSpaceOnUse">
<stop stop-color="#40D5E6"/>
<stop offset="1" stop-color="#5577FF"/>
</linearGradient>
<linearGradient id="paint9_linear" x1="171.309" y1="118.825" x2="207.711" y2="118.825" gradientUnits="userSpaceOnUse">
<stop stop-color="#40D5E6"/>
<stop offset="1" stop-color="#5577FF"/>
</linearGradient>
<linearGradient id="paint10_linear" x1="122.133" y1="154.068" x2="122.133" y2="103.691" gradientUnits="userSpaceOnUse">
<stop stop-color="#7DB3E0"/>
<stop offset="1" stop-color="white"/>
</linearGradient>
<radialGradient id="paint11_radial" cx="0" cy="0" r="1" gradientUnits="userSpaceOnUse" gradientTransform="translate(207.991 208.01) rotate(180) scale(143.803 143.932)">
<stop offset="0.1602" stop-color="#90C2E8"/>
<stop offset="0.5806" stop-color="#47AFFF"/>
<stop offset="1" stop-color="#6783F5"/>
</radialGradient>
<linearGradient id="paint12_linear" x1="120.463" y1="79.2447" x2="124.472" y2="140.565" gradientUnits="userSpaceOnUse">
<stop stop-color="#40D5E6"/>
<stop offset="1" stop-color="#5577FF"/>
</linearGradient>
<linearGradient id="paint13_linear" x1="120.463" y1="79.2449" x2="124.472" y2="140.565" gradientUnits="userSpaceOnUse">
<stop stop-color="#40D5E6"/>
<stop offset="1" stop-color="#5577FF"/>
</linearGradient>
</defs>
</svg>
