<svg width="114" height="22" viewBox="0 0 114 22" fill="none" xmlns="http://www.w3.org/2000/svg">
<path d="M56.7887 0.520998V10.2163H53.9774V2.82768H49.9407V10.2163H47.1475V0.520998H56.7887Z" fill="#2C78F6"/>
<path d="M64.0253 10.3604C63.0042 10.3604 62.0851 10.1502 61.2681 9.7297C60.4632 9.2972 59.8325 8.70251 59.3759 7.94563C58.9194 7.18875 58.6911 6.32975 58.6911 5.36863C58.6911 4.40752 58.9194 3.54852 59.3759 2.79164C59.8325 2.03476 60.4632 1.44607 61.2681 1.02558C62.0851 0.593082 63.0042 0.376831 64.0253 0.376831C65.0465 0.376831 65.9596 0.593082 66.7645 1.02558C67.5695 1.44607 68.2002 2.03476 68.6567 2.79164C69.1133 3.54852 69.3415 4.40752 69.3415 5.36863C69.3415 6.32975 69.1133 7.18875 68.6567 7.94563C68.2002 8.70251 67.5695 9.2972 66.7645 9.7297C65.9596 10.1502 65.0465 10.3604 64.0253 10.3604ZM64.0253 8.05376C64.7462 8.05376 65.3349 7.81348 65.7914 7.33292C66.2599 6.84034 66.4942 6.18558 66.4942 5.36863C66.4942 4.55168 66.2599 3.90293 65.7914 3.42237C65.3349 2.9298 64.7462 2.68351 64.0253 2.68351C63.3045 2.68351 62.7098 2.9298 62.2413 3.42237C61.7727 3.90293 61.5385 4.55168 61.5385 5.36863C61.5385 6.18558 61.7727 6.84034 62.2413 7.33292C62.7098 7.81348 63.3045 8.05376 64.0253 8.05376Z" fill="#2C78F6"/>
<path d="M76.9878 0.376831C77.8888 0.376831 78.7058 0.587075 79.4386 1.00756C80.1835 1.41604 80.7661 1.99872 81.1866 2.7556C81.6071 3.50046 81.8174 4.37147 81.8174 5.36863C81.8174 6.36579 81.6071 7.24281 81.1866 7.99969C80.7661 8.74456 80.1835 9.32724 79.4386 9.74772C78.7058 10.1562 77.8888 10.3604 76.9878 10.3604C75.7503 10.3604 74.7772 9.96998 74.0684 9.18908V13.7123H71.2571V0.520998H73.9422V1.6383C74.639 0.79732 75.6542 0.376831 76.9878 0.376831ZM76.5012 8.05376C77.222 8.05376 77.8107 7.81348 78.2672 7.33292C78.7358 6.84034 78.9701 6.18558 78.9701 5.36863C78.9701 4.55168 78.7358 3.90293 78.2672 3.42237C77.8107 2.9298 77.222 2.68351 76.5012 2.68351C75.7804 2.68351 75.1857 2.9298 74.7171 3.42237C74.2606 3.90293 74.0323 4.55168 74.0323 5.36863C74.0323 6.18558 74.2606 6.84034 74.7171 7.33292C75.1857 7.81348 75.7804 8.05376 76.5012 8.05376Z" fill="#2C78F6"/>
<path d="M91.5812 2.82768H88.3014V10.2163H85.5081V2.82768H82.2283V0.520998H91.5812V2.82768Z" fill="#2C78F6"/>
<path d="M96.8461 0.376831C98.3479 0.376831 99.5012 0.73725 100.306 1.45809C101.111 2.16691 101.514 3.24216 101.514 4.68384V10.2163H98.8825V9.00887C98.3539 9.90991 97.3687 10.3604 95.9271 10.3604C95.1822 10.3604 94.5334 10.2343 93.9808 9.982C93.4402 9.7297 93.0257 9.3813 92.7374 8.93678C92.449 8.49226 92.3049 7.98768 92.3049 7.42302C92.3049 6.52198 92.6412 5.81315 93.314 5.29655C93.9988 4.77995 95.05 4.52165 96.4677 4.52165H98.7023C98.7023 3.90894 98.5161 3.44039 98.1436 3.11601C97.7712 2.77962 97.2126 2.61143 96.4677 2.61143C95.9511 2.61143 95.4405 2.69553 94.9359 2.86372C94.4433 3.0199 94.0229 3.23615 93.6744 3.51248L92.6653 1.54819C93.1939 1.17576 93.8246 0.887424 94.5575 0.683187C95.3023 0.47895 96.0652 0.376831 96.8461 0.376831ZM96.6299 8.46824C97.1104 8.46824 97.5369 8.36011 97.9094 8.14386C98.2818 7.91559 98.5461 7.58521 98.7023 7.15271V6.16156H96.774C95.6207 6.16156 95.044 6.54 95.044 7.29688C95.044 7.65729 95.1822 7.94563 95.4585 8.16188C95.7469 8.36612 96.1373 8.46824 96.6299 8.46824Z" fill="#2C78F6"/>
<path d="M113.254 0.520998V10.2163H110.443V2.82768H107.38L107.29 4.53967C107.241 5.81315 107.121 6.87038 106.929 7.71136C106.737 8.55233 106.425 9.2131 105.992 9.69366C105.56 10.1742 104.959 10.4145 104.19 10.4145C103.781 10.4145 103.295 10.3424 102.73 10.1982L102.874 7.89157C103.067 7.91559 103.205 7.92761 103.289 7.92761C103.709 7.92761 104.022 7.77743 104.226 7.47708C104.442 7.16472 104.586 6.77427 104.658 6.30572C104.731 5.82516 104.785 5.19443 104.821 4.41352L104.965 0.520998H113.254Z" fill="#2C78F6"/>
<path d="M5.40629 10.3604C4.37308 10.3604 3.442 10.1502 2.61304 9.7297C1.79609 9.2972 1.15334 8.70251 0.684796 7.94563C0.228265 7.18875 0 6.32975 0 5.36863C0 4.40752 0.228265 3.54852 0.684796 2.79164C1.15334 2.03476 1.79609 1.44607 2.61304 1.02558C3.442 0.593082 4.37308 0.376831 5.40629 0.376831C6.42747 0.376831 7.31651 0.593082 8.07339 1.02558C8.84228 1.44607 9.40093 2.05278 9.74933 2.8457L7.5688 4.01706C7.06421 3.12803 6.33737 2.68351 5.38826 2.68351C4.65541 2.68351 4.04871 2.92379 3.56815 3.40435C3.08759 3.88491 2.84731 4.53967 2.84731 5.36863C2.84731 6.1976 3.08759 6.85236 3.56815 7.33292C4.04871 7.81348 4.65541 8.05376 5.38826 8.05376C6.34938 8.05376 7.07623 7.60924 7.5688 6.7202L9.74933 7.90959C9.40093 8.67848 8.84228 9.27918 8.07339 9.71168C7.31651 10.1442 6.42747 10.3604 5.40629 10.3604Z" fill="#30353E"/>
<path d="M19.5679 2.82768H16.2881V10.2163H13.4949V2.82768H10.2151V0.520998H19.5679V2.82768Z" fill="#30353E"/>
<path d="M25.203 10.3604C24.1818 10.3604 23.2627 10.1502 22.4458 9.7297C21.6409 9.2972 21.0101 8.70251 20.5536 7.94563C20.0971 7.18875 19.8688 6.32975 19.8688 5.36863C19.8688 4.40752 20.0971 3.54852 20.5536 2.79164C21.0101 2.03476 21.6409 1.44607 22.4458 1.02558C23.2627 0.593082 24.1818 0.376831 25.203 0.376831C26.2242 0.376831 27.1373 0.593082 27.9422 1.02558C28.7471 1.44607 29.3779 2.03476 29.8344 2.79164C30.2909 3.54852 30.5192 4.40752 30.5192 5.36863C30.5192 6.32975 30.2909 7.18875 29.8344 7.94563C29.3779 8.70251 28.7471 9.2972 27.9422 9.7297C27.1373 10.1502 26.2242 10.3604 25.203 10.3604ZM25.203 8.05376C25.9238 8.05376 26.5125 7.81348 26.9691 7.33292C27.4376 6.84034 27.6719 6.18558 27.6719 5.36863C27.6719 4.55168 27.4376 3.90293 26.9691 3.42237C26.5125 2.9298 25.9238 2.68351 25.203 2.68351C24.4822 2.68351 23.8875 2.9298 23.4189 3.42237C22.9504 3.90293 22.7161 4.55168 22.7161 5.36863C22.7161 6.18558 22.9504 6.84034 23.4189 7.33292C23.8875 7.81348 24.4822 8.05376 25.203 8.05376Z" fill="#30353E"/>
<path d="M41.9138 10.2163V4.41352L39.0124 9.27918H37.823L34.9937 4.3955V10.2163H32.4528V0.520998H35.3902L38.4898 6.12551L41.7876 0.520998H44.4187L44.4547 10.2163H41.9138Z" fill="#30353E"/>
<path d="M2.88575 20.28C2.42877 20.28 2.01808 20.1788 1.65365 19.9763C1.28923 19.7738 1.0029 19.4962 0.794653 19.1433C0.592196 18.7847 0.490967 18.3798 0.490967 17.9286C0.490967 17.4774 0.592196 17.0754 0.794653 16.7225C1.0029 16.3639 1.28923 16.0862 1.65365 15.8895C2.01808 15.6871 2.42877 15.5859 2.88575 15.5859C3.34273 15.5859 3.75053 15.6871 4.10917 15.8895C4.4736 16.0862 4.75704 16.3639 4.95949 16.7225C5.16774 17.0754 5.27186 17.4774 5.27186 17.9286C5.27186 18.3798 5.16774 18.7847 4.95949 19.1433C4.75704 19.4962 4.4736 19.7738 4.10917 19.9763C3.75053 20.1788 3.34273 20.28 2.88575 20.28ZM2.88575 19.5511C3.18076 19.5511 3.44396 19.4846 3.67534 19.3516C3.9125 19.2127 4.0976 19.0219 4.23065 18.7789C4.36369 18.5302 4.43021 18.2467 4.43021 17.9286C4.43021 17.6104 4.36369 17.3299 4.23065 17.0869C4.0976 16.8382 3.9125 16.6473 3.67534 16.5143C3.44396 16.3812 3.18076 16.3147 2.88575 16.3147C2.59074 16.3147 2.32465 16.3812 2.08749 16.5143C1.85611 16.6473 1.67101 16.8382 1.53218 17.0869C1.39913 17.3299 1.33261 17.6104 1.33261 17.9286C1.33261 18.2467 1.39913 18.5302 1.53218 18.7789C1.67101 19.0219 1.85611 19.2127 2.08749 19.3516C2.32465 19.4846 2.59074 19.5511 2.88575 19.5511Z" fill="#909AAB"/>
<path d="M9.09772 15.7854C9.52577 15.7854 9.90755 15.8809 10.2431 16.0718C10.5786 16.2626 10.8389 16.5287 11.024 16.87C11.2148 17.2055 11.3103 17.5902 11.3103 18.024C11.3103 18.4694 11.2091 18.8657 11.0066 19.2127C10.8099 19.554 10.5294 19.8201 10.165 20.011C9.80632 20.2019 9.39562 20.2973 8.93286 20.2973C8.15196 20.2973 7.54748 20.0312 7.11942 19.4991C6.69715 18.9611 6.48602 18.2062 6.48602 17.2344C6.48602 16.2916 6.6798 15.554 7.06736 15.0219C7.45492 14.4839 8.04783 14.1282 8.8461 13.9546L10.9459 13.4861L11.0673 14.2496L9.13243 14.6661C8.53084 14.7992 8.08254 15.0248 7.78753 15.3429C7.49252 15.6611 7.32477 16.118 7.28428 16.7138C7.48095 16.4188 7.73547 16.1903 8.04783 16.0284C8.3602 15.8664 8.71016 15.7854 9.09772 15.7854ZM8.95022 19.6032C9.24523 19.6032 9.50553 19.5367 9.73112 19.4036C9.9625 19.2706 10.1418 19.0884 10.2691 18.857C10.3963 18.6198 10.46 18.3509 10.46 18.0501C10.46 17.5931 10.3211 17.2258 10.0435 16.9481C9.76583 16.6705 9.40141 16.5316 8.95022 16.5316C8.49903 16.5316 8.13171 16.6705 7.84827 16.9481C7.57061 17.2258 7.43178 17.5931 7.43178 18.0501C7.43178 18.3509 7.49541 18.6198 7.62267 18.857C7.75572 19.0884 7.93793 19.2706 8.16931 19.4036C8.40069 19.5367 8.66099 19.6032 8.95022 19.6032Z" fill="#909AAB"/>
<path d="M16.7573 15.6292L14.5274 20.6878C14.3307 21.1563 14.0993 21.4861 13.8332 21.6769C13.5729 21.8678 13.2577 21.9633 12.8875 21.9633C12.6619 21.9633 12.442 21.9257 12.228 21.8505C12.0198 21.7811 11.8462 21.6769 11.7074 21.5381L12.0632 20.9134C12.3003 21.139 12.5751 21.2518 12.8875 21.2518C13.0899 21.2518 13.2577 21.1968 13.3907 21.0869C13.5295 20.9828 13.6539 20.8006 13.7638 20.5403L13.9113 20.2192L11.881 15.6292H12.7486L14.3538 19.3082L15.9417 15.6292H16.7573Z" fill="#909AAB"/>
<path d="M21.5607 15.6292V20.2279H20.7277V18.3711C20.2303 18.6025 19.7357 18.7182 19.244 18.7182C18.6713 18.7182 18.2288 18.5851 17.9165 18.319C17.6041 18.0529 17.4479 17.6538 17.4479 17.1216V15.6292H18.2809V17.0696C18.2809 17.3877 18.3792 17.6278 18.5759 17.7898C18.7784 17.9517 19.0589 18.0327 19.4175 18.0327C19.8225 18.0327 20.2592 17.9315 20.7277 17.729V15.6292H21.5607Z" fill="#909AAB"/>
<path d="M27.6143 17.9546C27.6143 18.0182 27.6085 18.1021 27.597 18.2062H23.866C23.918 18.6112 24.0945 18.938 24.3953 19.1867C24.7018 19.4297 25.0807 19.5511 25.5319 19.5511C26.0814 19.5511 26.524 19.366 26.8595 18.9958L27.3193 19.5338C27.1111 19.7767 26.8508 19.9618 26.5384 20.0891C26.2318 20.2164 25.8877 20.28 25.5059 20.28C25.02 20.28 24.589 20.1816 24.213 19.985C23.837 19.7825 23.5449 19.502 23.3367 19.1433C23.1342 18.7847 23.033 18.3798 23.033 17.9286C23.033 17.4832 23.1313 17.0812 23.328 16.7225C23.5305 16.3639 23.8052 16.0862 24.1523 15.8895C24.5052 15.6871 24.9014 15.5859 25.341 15.5859C25.7806 15.5859 26.1711 15.6871 26.5124 15.8895C26.8595 16.0862 27.1284 16.3639 27.3193 16.7225C27.516 17.0812 27.6143 17.4919 27.6143 17.9546ZM25.341 16.2887C24.9419 16.2887 24.6064 16.4101 24.3345 16.6531C24.0684 16.896 23.9122 17.2142 23.866 17.6075H26.8161C26.7698 17.22 26.6107 16.9047 26.3388 16.6618C26.0728 16.413 25.7402 16.2887 25.341 16.2887Z" fill="#909AAB"/>
<path d="M29.1869 15.6292H30.0198V17.5815H32.6402V15.6292H33.4732V20.2279H32.6402V18.3017H30.0198V20.2279H29.1869V15.6292Z" fill="#909AAB"/>
<path d="M35.3732 15.6292H36.2061V18.9785L39.0261 15.6292H39.781V20.2279H38.948V16.8787L36.1367 20.2279H35.3732V15.6292Z" fill="#909AAB"/>
<path d="M45.8342 17.9546C45.8342 18.0182 45.8284 18.1021 45.8169 18.2062H42.0859C42.1379 18.6112 42.3144 18.938 42.6152 19.1867C42.9217 19.4297 43.3006 19.5511 43.7518 19.5511C44.3013 19.5511 44.7439 19.366 45.0793 18.9958L45.5392 19.5338C45.331 19.7767 45.0707 19.9618 44.7583 20.0891C44.4517 20.2164 44.1076 20.28 43.7258 20.28C43.2399 20.28 42.8089 20.1816 42.4329 19.985C42.0569 19.7825 41.7648 19.502 41.5566 19.1433C41.3541 18.7847 41.2529 18.3798 41.2529 17.9286C41.2529 17.4832 41.3512 17.0812 41.5479 16.7225C41.7504 16.3639 42.0251 16.0862 42.3722 15.8895C42.7251 15.6871 43.1213 15.5859 43.5609 15.5859C44.0005 15.5859 44.391 15.6871 44.7323 15.8895C45.0794 16.0862 45.3483 16.3639 45.5392 16.7225C45.7359 17.0812 45.8342 17.4919 45.8342 17.9546ZM43.5609 16.2887C43.1618 16.2887 42.8263 16.4101 42.5544 16.6531C42.2883 16.896 42.1321 17.2142 42.0859 17.6075H45.036C44.9897 17.22 44.8306 16.9047 44.5587 16.6618C44.2927 16.413 43.9601 16.2887 43.5609 16.2887Z" fill="#909AAB"/>
<path d="M52.0216 20.28C51.5531 20.28 51.1337 20.1788 50.7635 19.9763C50.3991 19.7738 50.1127 19.4962 49.9045 19.1433C49.6963 18.7847 49.5921 18.3798 49.5921 17.9286C49.5921 17.4774 49.6963 17.0754 49.9045 16.7225C50.1127 16.3639 50.3991 16.0862 50.7635 15.8895C51.1337 15.6871 51.5531 15.5859 52.0216 15.5859C52.4381 15.5859 52.8083 15.6697 53.1322 15.8375C53.462 16.0052 53.7165 16.2482 53.8958 16.5663L53.2624 16.9741C53.1178 16.7543 52.9385 16.5895 52.7244 16.4796C52.5104 16.3697 52.2732 16.3147 52.0129 16.3147C51.7122 16.3147 51.4403 16.3812 51.1973 16.5143C50.9602 16.6473 50.7722 16.8382 50.6333 17.0869C50.5003 17.3299 50.4338 17.6104 50.4338 17.9286C50.4338 18.2525 50.5003 18.5388 50.6333 18.7876C50.7722 19.0305 50.9602 19.2185 51.1973 19.3516C51.4403 19.4846 51.7122 19.5511 52.0129 19.5511C52.2732 19.5511 52.5104 19.4962 52.7244 19.3863C52.9385 19.2764 53.1178 19.1115 53.2624 18.8917L53.8958 19.2908C53.7165 19.609 53.462 19.8548 53.1322 20.0284C52.8083 20.1961 52.4381 20.28 52.0216 20.28Z" fill="#909AAB"/>
<path d="M58.6226 16.3581H56.9393V20.2279H56.1063V16.3581H54.423V15.6292H58.6226V16.3581Z" fill="#909AAB"/>
<path d="M61.5209 20.28C61.0639 20.28 60.6532 20.1788 60.2888 19.9763C59.9244 19.7738 59.638 19.4962 59.4298 19.1433C59.2273 18.7847 59.1261 18.3798 59.1261 17.9286C59.1261 17.4774 59.2273 17.0754 59.4298 16.7225C59.638 16.3639 59.9244 16.0862 60.2888 15.8895C60.6532 15.6871 61.0639 15.5859 61.5209 15.5859C61.9779 15.5859 62.3857 15.6871 62.7443 15.8895C63.1087 16.0862 63.3922 16.3639 63.5946 16.7225C63.8029 17.0754 63.907 17.4774 63.907 17.9286C63.907 18.3798 63.8029 18.7847 63.5946 19.1433C63.3922 19.4962 63.1087 19.7738 62.7443 19.9763C62.3857 20.1788 61.9779 20.28 61.5209 20.28ZM61.5209 19.5511C61.8159 19.5511 62.0791 19.4846 62.3105 19.3516C62.5476 19.2127 62.7327 19.0219 62.8658 18.7789C62.9988 18.5302 63.0653 18.2467 63.0653 17.9286C63.0653 17.6104 62.9988 17.3299 62.8658 17.0869C62.7327 16.8382 62.5476 16.6473 62.3105 16.5143C62.0791 16.3812 61.8159 16.3147 61.5209 16.3147C61.2259 16.3147 60.9598 16.3812 60.7226 16.5143C60.4912 16.6473 60.3061 16.8382 60.1673 17.0869C60.0343 17.3299 59.9678 17.6104 59.9678 17.9286C59.9678 18.2467 60.0343 18.5302 60.1673 18.7789C60.3061 19.0219 60.4912 19.2127 60.7226 19.3516C60.9598 19.4846 61.2259 19.5511 61.5209 19.5511Z" fill="#909AAB"/>
<path d="M70.6916 15.6292V20.2279H69.9368V16.87L68.2188 19.7073H67.8543L66.1537 16.8613V20.2279H65.3901V15.6292H66.2491L68.0539 18.7355L69.9107 15.6292H70.6916Z" fill="#909AAB"/>
<path d="M74.2331 15.5859C74.8694 15.5859 75.3553 15.742 75.6908 16.0544C76.0321 16.3668 76.2028 16.8324 76.2028 17.4514V20.2279H75.4132V19.6205C75.2743 19.8346 75.0748 19.9994 74.8145 20.1151C74.56 20.225 74.2563 20.28 73.9034 20.28C73.3886 20.28 72.975 20.1556 72.6626 19.9069C72.3561 19.6581 72.2028 19.3313 72.2028 18.9264C72.2028 18.5215 72.3503 18.1976 72.6453 17.9546C72.9403 17.7059 73.4088 17.5815 74.0509 17.5815H75.3698V17.4167C75.3698 17.058 75.2657 16.7832 75.0574 16.5924C74.8492 16.4015 74.5426 16.306 74.1377 16.306C73.8658 16.306 73.5997 16.3523 73.3394 16.4449C73.0791 16.5316 72.8593 16.6502 72.68 16.8006L72.3329 16.1759C72.5701 15.985 72.8535 15.8404 73.1832 15.742C73.513 15.6379 73.8629 15.5859 74.2331 15.5859ZM74.0422 19.6379C74.3604 19.6379 74.6351 19.5685 74.8665 19.4297C75.0979 19.285 75.2657 19.0826 75.3698 18.8223V18.1802H74.0856C73.3799 18.1802 73.0271 18.4174 73.0271 18.8917C73.0271 19.1231 73.1167 19.3053 73.296 19.4383C73.4754 19.5714 73.7241 19.6379 74.0422 19.6379Z" fill="#909AAB"/>
<path d="M81.4103 16.3581H79.727V20.2279H78.8941V16.3581H77.2108V15.6292H81.4103V16.3581Z" fill="#909AAB"/>
<path d="M84.3087 20.28C83.8517 20.28 83.441 20.1788 83.0766 19.9763C82.7121 19.7738 82.4258 19.4962 82.2176 19.1433C82.0151 18.7847 81.9139 18.3798 81.9139 17.9286C81.9139 17.4774 82.0151 17.0754 82.2176 16.7225C82.4258 16.3639 82.7121 16.0862 83.0766 15.8895C83.441 15.6871 83.8517 15.5859 84.3087 15.5859C84.7656 15.5859 85.1734 15.6871 85.5321 15.8895C85.8965 16.0862 86.1799 16.3639 86.3824 16.7225C86.5906 17.0754 86.6948 17.4774 86.6948 17.9286C86.6948 18.3798 86.5906 18.7847 86.3824 19.1433C86.1799 19.4962 85.8965 19.7738 85.5321 19.9763C85.1734 20.1788 84.7656 20.28 84.3087 20.28ZM84.3087 19.5511C84.6037 19.5511 84.8669 19.4846 85.0982 19.3516C85.3354 19.2127 85.5205 19.0219 85.6536 18.7789C85.7866 18.5302 85.8531 18.2467 85.8531 17.9286C85.8531 17.6104 85.7866 17.3299 85.6536 17.0869C85.5205 16.8382 85.3354 16.6473 85.0982 16.5143C84.8669 16.3812 84.6037 16.3147 84.3087 16.3147C84.0136 16.3147 83.7476 16.3812 83.5104 16.5143C83.279 16.6473 83.0939 16.8382 82.9551 17.0869C82.822 17.3299 82.7555 17.6104 82.7555 17.9286C82.7555 18.2467 82.822 18.5302 82.9551 18.7789C83.0939 19.0219 83.279 19.2127 83.5104 19.3516C83.7476 19.4846 84.0136 19.5511 84.3087 19.5511Z" fill="#909AAB"/>
<path d="M92.0919 15.6292V20.2279H91.259V16.3581H89.2807L89.2286 17.3819C89.1997 18.0009 89.1447 18.5186 89.0637 18.9351C88.9828 19.3458 88.8497 19.6755 88.6646 19.9242C88.4795 20.173 88.2221 20.2973 87.8924 20.2973C87.742 20.2973 87.5713 20.2713 87.3804 20.2192L87.4325 19.5164C87.5077 19.5338 87.5771 19.5425 87.6408 19.5425C87.8721 19.5425 88.0457 19.4412 88.1614 19.2388C88.277 19.0363 88.3522 18.7963 88.3869 18.5186C88.4217 18.2409 88.4535 17.8447 88.4824 17.3299L88.5605 15.6292H92.0919Z" fill="#909AAB"/>
<path d="M95.9525 20.28C95.4955 20.28 95.0848 20.1788 94.7204 19.9763C94.356 19.7738 94.0696 19.4962 93.8614 19.1433C93.6589 18.7847 93.5577 18.3798 93.5577 17.9286C93.5577 17.4774 93.6589 17.0754 93.8614 16.7225C94.0696 16.3639 94.356 16.0862 94.7204 15.8895C95.0848 15.6871 95.4955 15.5859 95.9525 15.5859C96.4095 15.5859 96.8173 15.6871 97.1759 15.8895C97.5403 16.0862 97.8238 16.3639 98.0262 16.7225C98.2345 17.0754 98.3386 17.4774 98.3386 17.9286C98.3386 18.3798 98.2345 18.7847 98.0262 19.1433C97.8238 19.4962 97.5403 19.7738 97.1759 19.9763C96.8173 20.1788 96.4095 20.28 95.9525 20.28ZM95.9525 19.5511C96.2475 19.5511 96.5107 19.4846 96.7421 19.3516C96.9792 19.2127 97.1644 19.0219 97.2974 18.7789C97.4304 18.5302 97.497 18.2467 97.497 17.9286C97.497 17.6104 97.4304 17.3299 97.2974 17.0869C97.1644 16.8382 96.9792 16.6473 96.7421 16.5143C96.5107 16.3812 96.2475 16.3147 95.9525 16.3147C95.6575 16.3147 95.3914 16.3812 95.1542 16.5143C94.9229 16.6473 94.7378 16.8382 94.5989 17.0869C94.4659 17.3299 94.3994 17.6104 94.3994 17.9286C94.3994 18.2467 94.4659 18.5302 94.5989 18.7789C94.7378 19.0219 94.9229 19.2127 95.1542 19.3516C95.3914 19.4846 95.6575 19.5511 95.9525 19.5511Z" fill="#909AAB"/>
<path d="M103.206 16.3581H100.655V20.2279H99.8217V15.6292H103.206V16.3581Z" fill="#909AAB"/>
<path d="M106.105 20.28C105.648 20.28 105.237 20.1788 104.873 19.9763C104.508 19.7738 104.222 19.4962 104.014 19.1433C103.811 18.7847 103.71 18.3798 103.71 17.9286C103.71 17.4774 103.811 17.0754 104.014 16.7225C104.222 16.3639 104.508 16.0862 104.873 15.8895C105.237 15.6871 105.648 15.5859 106.105 15.5859C106.562 15.5859 106.97 15.6871 107.328 15.8895C107.693 16.0862 107.976 16.3639 108.179 16.7225C108.387 17.0754 108.491 17.4774 108.491 17.9286C108.491 18.3798 108.387 18.7847 108.179 19.1433C107.976 19.4962 107.693 19.7738 107.328 19.9763C106.97 20.1788 106.562 20.28 106.105 20.28ZM106.105 19.5511C106.4 19.5511 106.663 19.4846 106.895 19.3516C107.132 19.2127 107.317 19.0219 107.45 18.7789C107.583 18.5302 107.649 18.2467 107.649 17.9286C107.649 17.6104 107.583 17.3299 107.45 17.0869C107.317 16.8382 107.132 16.6473 106.895 16.5143C106.663 16.3812 106.4 16.3147 106.105 16.3147C105.81 16.3147 105.544 16.3812 105.307 16.5143C105.075 16.6473 104.89 16.8382 104.751 17.0869C104.618 17.3299 104.552 17.6104 104.552 17.9286C104.552 18.2467 104.618 18.5302 104.751 18.7789C104.89 19.0219 105.075 19.2127 105.307 19.3516C105.544 19.4846 105.81 19.5511 106.105 19.5511Z" fill="#909AAB"/>
<path d="M113.107 17.8418C113.702 17.9922 114 18.3653 114 18.9611C114 19.366 113.847 19.6784 113.54 19.8982C113.24 20.118 112.788 20.2279 112.187 20.2279H109.974V15.6292H112.109C112.652 15.6292 113.078 15.7334 113.384 15.9416C113.691 16.1441 113.844 16.4333 113.844 16.8093C113.844 17.0522 113.778 17.2634 113.645 17.4427C113.517 17.6162 113.338 17.7493 113.107 17.8418ZM110.79 17.6075H112.039C112.357 17.6075 112.598 17.5497 112.76 17.434C112.927 17.3183 113.011 17.1506 113.011 16.9308C113.011 16.4911 112.687 16.2713 112.039 16.2713H110.79V17.6075ZM112.126 19.5858C112.473 19.5858 112.733 19.5309 112.907 19.421C113.081 19.3111 113.167 19.1404 113.167 18.9091C113.167 18.6719 113.086 18.4955 112.924 18.3798C112.768 18.2641 112.519 18.2062 112.178 18.2062H110.79V19.5858H112.126Z" fill="#909AAB"/>
</svg>
