<svg width="45" height="37" viewBox="0 0 45 37" fill="none" xmlns="http://www.w3.org/2000/svg">
<path d="M22.4865 13.9892C18.7605 13.9892 15.7405 17.0105 15.7405 20.7352C15.7405 24.4612 18.7605 27.4811 22.4865 27.4811C26.2116 27.4811 29.2324 24.4612 29.2324 20.7352C29.2324 17.0105 26.2116 13.9892 22.4865 13.9892ZM40.4757 7.24326H35.0789C34.3369 7.24326 33.5372 6.66761 33.3029 5.96333L31.9079 1.7768C31.6727 1.07297 30.8739 0.497314 30.1319 0.497314H14.8411C14.099 0.497314 13.2994 1.07297 13.0651 1.77725L11.67 5.96378C11.4348 6.66761 10.6361 7.24326 9.89405 7.24326H4.4973C2.02378 7.24326 0 9.26704 0 11.7406V31.9784C0 34.4519 2.02378 36.4757 4.4973 36.4757H40.4757C42.9492 36.4757 44.973 34.4519 44.973 31.9784V11.7406C44.973 9.26704 42.9492 7.24326 40.4757 7.24326ZM22.4865 31.9784C16.2771 31.9784 11.2432 26.9446 11.2432 20.7352C11.2432 14.5262 16.2771 9.49191 22.4865 9.49191C28.695 9.49191 33.7297 14.5262 33.7297 20.7352C33.7297 26.9446 28.695 31.9784 22.4865 31.9784ZM38.9016 14.8855C38.0327 14.8855 37.3276 14.1812 37.3276 13.3115C37.3276 12.4426 38.0327 11.7374 38.9016 11.7374C39.7714 11.7374 40.4757 12.4426 40.4757 13.3115C40.4757 14.1812 39.771 14.8855 38.9016 14.8855Z" fill="#2C78F6" fill-opacity="0.31"/>
</svg>
