<svg width="35" height="35" viewBox="0 0 35 35" fill="none" xmlns="http://www.w3.org/2000/svg">
<path d="M5.52016 2.49994H30.6554C32.0343 2.49994 33.153 3.61894 33.153 5.00003V30C33.153 31.3811 32.0343 32.5001 30.6554 32.5001H5.52016C4.14122 32.5001 3.0226 31.3811 3.0226 30V5.00003C3.0226 3.61894 4.14123 2.49994 5.52016 2.49994Z" fill="black" fill-opacity="0.01" stroke="#5B80B4"/>
<path d="M26.5378 21.33C26.5172 21.2857 26.498 21.2489 26.4802 21.2194C26.1852 20.6882 25.6216 20.0362 24.7896 19.2631L24.772 19.2454L24.7632 19.2368L24.7543 19.2279H24.7454C24.3678 18.8679 24.1287 18.6259 24.0285 18.502C23.8453 18.2659 23.8043 18.027 23.9044 17.7849C23.9751 17.602 24.2409 17.2157 24.701 16.6255C24.9431 16.3127 25.1347 16.0621 25.2763 15.8732C26.2972 14.516 26.7398 13.6487 26.604 13.271L26.5513 13.1827C26.5159 13.1296 26.4244 13.081 26.277 13.0366C26.1294 12.9924 25.9406 12.9851 25.7104 13.0145L23.1613 13.0322C23.12 13.0175 23.0611 13.0189 22.9842 13.0366C22.9075 13.0544 22.8691 13.0633 22.8691 13.0633L22.8248 13.0854L22.7896 13.112C22.76 13.1297 22.7276 13.1606 22.6921 13.2049C22.6569 13.249 22.6274 13.3008 22.6039 13.3598C22.3263 14.0738 22.0108 14.7376 21.6567 15.3513C21.4383 15.7172 21.2378 16.0343 21.0547 16.3028C20.8718 16.5712 20.7184 16.769 20.5946 16.8957C20.4705 17.0226 20.3586 17.1243 20.2581 17.2011C20.1578 17.2779 20.0812 17.3103 20.0281 17.2985C19.975 17.2866 19.9249 17.2748 19.8775 17.263C19.7949 17.2099 19.7285 17.1376 19.6785 17.0462C19.6282 16.9547 19.5943 16.8396 19.5766 16.7009C19.559 16.5622 19.5486 16.4428 19.5456 16.3425C19.5429 16.2422 19.5441 16.1005 19.5501 15.9176C19.5562 15.7346 19.559 15.6107 19.559 15.5458C19.559 15.3216 19.5634 15.0782 19.5722 14.8156C19.5811 14.553 19.5883 14.345 19.5943 14.1917C19.6004 14.0383 19.6032 13.8759 19.6032 13.7048C19.6032 13.5337 19.5927 13.3995 19.5722 13.3021C19.5518 13.2048 19.5206 13.1103 19.4795 13.0188C19.4381 12.9273 19.3775 12.8566 19.298 12.8064C19.2184 12.7562 19.1193 12.7164 19.0015 12.6868C18.6887 12.6161 18.2905 12.5778 17.8065 12.5718C16.709 12.56 16.0038 12.6309 15.6911 12.7843C15.5671 12.8492 15.455 12.9377 15.3548 13.0498C15.2485 13.1796 15.2337 13.2505 15.3104 13.2622C15.6645 13.3152 15.9152 13.4421 16.0627 13.6427L16.1159 13.749C16.1572 13.8257 16.1985 13.9615 16.2399 14.1562C16.2811 14.3509 16.3077 14.5662 16.3195 14.8022C16.3489 15.233 16.3489 15.6018 16.3195 15.9086C16.2899 16.2155 16.262 16.4544 16.2354 16.6256C16.2088 16.7967 16.169 16.9353 16.1159 17.0415C16.0627 17.1477 16.0273 17.2127 16.0096 17.2362C15.9919 17.2598 15.9771 17.2746 15.9654 17.2805C15.8887 17.3098 15.809 17.3248 15.7264 17.3248C15.6437 17.3248 15.5435 17.2835 15.4255 17.2008C15.3075 17.1182 15.1851 17.0046 15.0582 16.86C14.9313 16.7154 14.7882 16.5133 14.6288 16.2537C14.4696 15.9941 14.3043 15.6873 14.1332 15.3333L13.9916 15.0765C13.9031 14.9113 13.7822 14.6708 13.6288 14.3552C13.4753 14.0394 13.3396 13.734 13.2216 13.439C13.1744 13.315 13.1036 13.2207 13.0092 13.1558L12.9649 13.1292C12.9355 13.1056 12.8882 13.0806 12.8233 13.0539C12.7584 13.0273 12.6906 13.0082 12.6197 12.9964L10.1945 13.0141C9.94669 13.0141 9.77854 13.0702 9.68999 13.1823L9.65456 13.2354C9.63686 13.2649 9.62793 13.3121 9.62793 13.3771C9.62793 13.442 9.64563 13.5216 9.68107 13.616C10.0351 14.4481 10.4201 15.2505 10.8361 16.0235C11.2521 16.7965 11.6135 17.4192 11.9203 17.891C12.2271 18.3631 12.5399 18.8087 12.8585 19.2275C13.1772 19.6465 13.3881 19.915 13.4913 20.033C13.5947 20.1511 13.6758 20.2395 13.7348 20.2985L13.9562 20.5109C14.0978 20.6525 14.3057 20.8222 14.5801 21.0198C14.8546 21.2176 15.1584 21.4123 15.4918 21.6042C15.8253 21.7958 16.2132 21.9522 16.6558 22.0731C17.0983 22.1942 17.5291 22.2428 17.9481 22.2193H18.966C19.1724 22.2015 19.3288 22.1366 19.4351 22.0245L19.4703 21.9802C19.494 21.945 19.5162 21.8902 19.5367 21.8166C19.5574 21.7429 19.5677 21.6616 19.5677 21.5732C19.5616 21.3195 19.5809 21.0909 19.6251 20.8873C19.6692 20.6838 19.7195 20.5304 19.7757 20.4271C19.8319 20.3239 19.8953 20.2367 19.9659 20.1661C20.0367 20.0953 20.0871 20.0525 20.1167 20.0377C20.1461 20.0229 20.1695 20.0128 20.1872 20.0067C20.3288 19.9596 20.4955 20.0052 20.6875 20.144C20.8793 20.2827 21.0592 20.4539 21.2274 20.6574C21.3956 20.8611 21.5977 21.0896 21.8337 21.3433C22.0698 21.5971 22.2763 21.7857 22.4533 21.9098L22.6302 22.016C22.7484 22.0869 22.9018 22.1518 23.0907 22.2108C23.2792 22.2698 23.4444 22.2845 23.5862 22.2551L25.852 22.2197C26.0761 22.2197 26.2505 22.1826 26.3742 22.109C26.4981 22.0352 26.5718 21.954 26.5955 21.8656C26.6192 21.7771 26.6205 21.6767 26.6 21.5645C26.579 21.4526 26.5584 21.3743 26.5378 21.33Z" fill="#5B80B4"/>
</svg>
